<svg width="740" height="900" viewBox="0 0 740 900" xmlns="http://www.w3.org/2000/svg">
  <defs>
    <style>
      text { font-family: 'JetBrains Mono', 'Courier New', monospace; }
    </style>
  </defs>

  <!-- Background -->
  <rect width="740" height="900" fill="#ffffff" rx="0"/>

  <!-- ── HEADER ── -->
  <text x="20" y="28" font-size="11" fill="#6b6b67" letter-spacing="2">// README.md</text>

  <text x="20" y="66" font-size="32" font-weight="800" fill="#1a1a18" letter-spacing="-0.5">Ícaro Nascimento</text>
  <text x="20" y="90" font-size="14" fill="#6b6b67">Backend Developer · 7 anos de experiência</text>

  <!-- Divider after header -->
  <line x1="20" y1="106" x2="720" y2="106" stroke="rgba(0,0,0,0.10)" stroke-width="0.5"/>

  <!-- ── BADGES ── -->
  <!-- Java -->
  <rect x="20" y="118" width="52" height="20" rx="4" fill="#B5D4F4" stroke="#378ADD" stroke-width="0.5"/>
  <text x="46" y="132" font-size="10" fill="#0C447C" text-anchor="middle">Java</text>
  <!-- Python -->
  <rect x="78" y="118" width="58" height="20" rx="4" fill="#B5D4F4" stroke="#378ADD" stroke-width="0.5"/>
  <text x="107" y="132" font-size="10" fill="#0C447C" text-anchor="middle">Python</text>
  <!-- Kotlin -->
  <rect x="142" y="118" width="55" height="20" rx="4" fill="#B5D4F4" stroke="#378ADD" stroke-width="0.5"/>
  <text x="169" y="132" font-size="10" fill="#0C447C" text-anchor="middle">Kotlin</text>
  <!-- JavaScript -->
  <rect x="203" y="118" width="82" height="20" rx="4" fill="#B5D4F4" stroke="#378ADD" stroke-width="0.5"/>
  <text x="244" y="132" font-size="10" fill="#0C447C" text-anchor="middle">JavaScript</text>
  <!-- AWS -->
  <rect x="291" y="118" width="44" height="20" rx="4" fill="#C0DD97" stroke="#639922" stroke-width="0.5"/>
  <text x="313" y="132" font-size="10" fill="#27500A" text-anchor="middle">AWS</text>
  <!-- Kafka -->
  <rect x="341" y="118" width="50" height="20" rx="4" fill="#C0DD97" stroke="#639922" stroke-width="0.5"/>
  <text x="366" y="132" font-size="10" fill="#27500A" text-anchor="middle">Kafka</text>
  <!-- Grafana -->
  <rect x="397" y="118" width="60" height="20" rx="4" fill="#C0DD97" stroke="#639922" stroke-width="0.5"/>
  <text x="427" y="132" font-size="10" fill="#27500A" text-anchor="middle">Grafana</text>
  <!-- Datadog -->
  <rect x="463" y="118" width="62" height="20" rx="4" fill="#C0DD97" stroke="#639922" stroke-width="0.5"/>
  <text x="494" y="132" font-size="10" fill="#27500A" text-anchor="middle">Datadog</text>

  <!-- ── SOBRE MIM ── -->
  <text x="20" y="168" font-size="10" fill="#6b6b67" letter-spacing="2">// SOBRE MIM</text>
  <rect x="20" y="178" width="3" height="54" rx="1" fill="#378ADD"/>
  <text x="32" y="192" font-size="12" fill="#1a1a18">Desenvolvedor backend com foco em arquiteturas escaláveis</text>
  <text x="32" y="210" font-size="12" fill="#1a1a18">e sistemas orientados a eventos. Trabalho com Java, Kotlin,</text>
  <text x="32" y="228" font-size="12" fill="#1a1a18">Python e JavaScript — de microsserviços a BFFs.</text>

  <!-- ── STACK PRINCIPAL ── -->
  <text x="20" y="262" font-size="10" fill="#6b6b67" letter-spacing="2">// STACK PRINCIPAL</text>
  <!-- Legend -->
  <circle cx="20" cy="278" r="4" fill="#378ADD"/>
  <text x="30" y="282" font-size="10" fill="#6b6b67">linguagens</text>
  <circle cx="102" cy="278" r="4" fill="#639922"/>
  <text x="112" y="282" font-size="10" fill="#6b6b67">infra &amp; cloud</text>

  <!-- Card Java/Kotlin -->
  <rect x="20" y="292" width="132" height="148" rx="10" fill="#f5f5f3" stroke="rgba(0,0,0,0.09)" stroke-width="0.5"/>
  <rect x="20" y="292" width="132" height="4" rx="2" fill="#378ADD"/>
  <text x="32" y="316" font-size="11" font-weight="700" fill="#185FA5">Java / Kotlin</text>
  <text x="32" y="335" font-size="11" fill="#6b6b67">Spring Boot</text>
  <text x="32" y="353" font-size="11" fill="#6b6b67">Event-Driven</text>
  <text x="32" y="371" font-size="11" fill="#6b6b67">Microsserviços</text>
  <text x="32" y="389" font-size="11" fill="#6b6b67">JPA / Hibernate</text>

  <!-- Card Python -->
  <rect x="162" y="292" width="132" height="148" rx="10" fill="#f5f5f3" stroke="rgba(0,0,0,0.09)" stroke-width="0.5"/>
  <rect x="162" y="292" width="132" height="4" rx="2" fill="#378ADD"/>
  <text x="174" y="316" font-size="11" font-weight="700" fill="#185FA5">Python</text>
  <text x="174" y="335" font-size="11" fill="#6b6b67">FastAPI / Flask</text>
  <text x="174" y="353" font-size="11" fill="#6b6b67">Automação</text>
  <text x="174" y="371" font-size="11" fill="#6b6b67">Data pipelines</text>
  <text x="174" y="389" font-size="11" fill="#6b6b67">Scripts &amp; CLI</text>

  <!-- Card JavaScript -->
  <rect x="304" y="292" width="132" height="148" rx="10" fill="#f5f5f3" stroke="rgba(0,0,0,0.09)" stroke-width="0.5"/>
  <rect x="304" y="292" width="132" height="4" rx="2" fill="#378ADD"/>
  <text x="316" y="316" font-size="11" font-weight="700" fill="#185FA5">JavaScript</text>
  <text x="316" y="335" font-size="11" fill="#6b6b67">Angular · React</text>
  <text x="316" y="353" font-size="11" fill="#6b6b67">Node.js</text>
  <text x="316" y="371" font-size="11" fill="#6b6b67">TypeScript</text>
  <text x="316" y="389" font-size="11" fill="#6b6b67">NgRx</text>

  <!-- Card AWS -->
  <rect x="446" y="292" width="132" height="148" rx="10" fill="#f5f5f3" stroke="rgba(0,0,0,0.09)" stroke-width="0.5"/>
  <rect x="446" y="292" width="132" height="4" rx="2" fill="#639922"/>
  <text x="458" y="316" font-size="11" font-weight="700" fill="#3B6D11">AWS</text>
  <text x="458" y="335" font-size="11" fill="#6b6b67">Lambda · SNS · SQS</text>
  <text x="458" y="353" font-size="11" fill="#6b6b67">DynamoDB · S3</text>
  <text x="458" y="371" font-size="11" fill="#6b6b67">ECS / EKS</text>
  <text x="458" y="389" font-size="11" fill="#6b6b67">CloudFormation</text>

  <!-- Card Observabilidade -->
  <rect x="588" y="292" width="132" height="148" rx="10" fill="#f5f5f3" stroke="rgba(0,0,0,0.09)" stroke-width="0.5"/>
  <rect x="588" y="292" width="132" height="4" rx="2" fill="#639922"/>
  <text x="600" y="316" font-size="11" font-weight="700" fill="#3B6D11">Observabilidade</text>
  <text x="600" y="335" font-size="11" fill="#6b6b67">Splunk · ELK</text>
  <text x="600" y="353" font-size="11" fill="#6b6b67">Grafana</text>
  <text x="600" y="371" font-size="11" fill="#6b6b67">Datadog</text>
  <text x="600" y="389" font-size="11" fill="#6b6b67">Métricas &amp; Traces</text>

  <!-- ── AI TOOLS ── -->
  <text x="20" y="464" font-size="10" fill="#6b6b67" letter-spacing="2">// AI TOOLS</text>

  <!-- AI Card Claude -->
  <rect x="20" y="476" width="130" height="76" rx="10" fill="#f5f5f3" stroke="rgba(0,0,0,0.09)" stroke-width="0.5"/>
  <rect x="20" y="476" width="130" height="4" rx="2" fill="#378ADD"/>
  <text x="32" y="499" font-size="11" font-weight="700" fill="#185FA5">Claude</text>
  <text x="32" y="516" font-size="10" fill="#6b6b67">Anthropic</text>
  <text x="32" y="532" font-size="10" fill="#6b6b67">reasoning &amp; code</text>

  <!-- AI Card Cursor -->
  <rect x="160" y="476" width="130" height="76" rx="10" fill="#f5f5f3" stroke="rgba(0,0,0,0.09)" stroke-width="0.5"/>
  <rect x="160" y="476" width="130" height="4" rx="2" fill="#378ADD"/>
  <text x="172" y="499" font-size="11" font-weight="700" fill="#185FA5">Cursor</text>
  <text x="172" y="516" font-size="10" fill="#6b6b67">AI-first</text>
  <text x="172" y="532" font-size="10" fill="#6b6b67">code editor</text>

  <!-- AI Card Windsurf -->
  <rect x="300" y="476" width="130" height="76" rx="10" fill="#f5f5f3" stroke="rgba(0,0,0,0.09)" stroke-width="0.5"/>
  <rect x="300" y="476" width="130" height="4" rx="2" fill="#378ADD"/>
  <text x="312" y="499" font-size="11" font-weight="700" fill="#185FA5">Windsurf</text>
  <text x="312" y="516" font-size="10" fill="#6b6b67">Codeium</text>
  <text x="312" y="532" font-size="10" fill="#6b6b67">agentic IDE</text>

  <!-- AI Card Copilot -->
  <rect x="440" y="476" width="130" height="76" rx="10" fill="#f5f5f3" stroke="rgba(0,0,0,0.09)" stroke-width="0.5"/>
  <rect x="440" y="476" width="130" height="4" rx="2" fill="#378ADD"/>
  <text x="452" y="499" font-size="11" font-weight="700" fill="#185FA5">Copilot</text>
  <text x="452" y="516" font-size="10" fill="#6b6b67">GitHub</text>
  <text x="452" y="532" font-size="10" fill="#6b6b67">code assist</text>

  <!-- AI Card Devin -->
  <rect x="580" y="476" width="140" height="76" rx="10" fill="#f5f5f3" stroke="rgba(0,0,0,0.09)" stroke-width="0.5"/>
  <rect x="580" y="476" width="140" height="4" rx="2" fill="#378ADD"/>
  <text x="592" y="499" font-size="11" font-weight="700" fill="#185FA5">Devin</text>
  <text x="592" y="516" font-size="10" fill="#6b6b67">Cognition</text>
  <text x="592" y="532" font-size="10" fill="#6b6b67">AI engineer</text>

  <!-- ── NÚMEROS ── -->
  <text x="20" y="582" font-size="10" fill="#6b6b67" letter-spacing="2">// NÚMEROS</text>

  <!-- Stat 1 -->
  <rect x="20" y="594" width="164" height="68" rx="8" fill="#f5f5f3"/>
  <text x="102" y="626" font-size="22" font-weight="700" fill="#1a1a18" text-anchor="middle">7</text>
  <text x="102" y="648" font-size="10" fill="#6b6b67" text-anchor="middle">anos de exp.</text>

  <!-- Stat 2 -->
  <rect x="194" y="594" width="164" height="68" rx="8" fill="#f5f5f3"/>
  <text x="276" y="626" font-size="22" font-weight="700" fill="#1a1a18" text-anchor="middle">3+</text>
  <text x="276" y="648" font-size="10" fill="#6b6b67" text-anchor="middle">clouds</text>

  <!-- Stat 3 -->
  <rect x="368" y="594" width="164" height="68" rx="8" fill="#f5f5f3"/>
  <text x="450" y="626" font-size="22" font-weight="700" fill="#1a1a18" text-anchor="middle">10+</text>
  <text x="450" y="648" font-size="10" fill="#6b6b67" text-anchor="middle">stacks usadas</text>

  <!-- Stat 4 -->
  <rect x="542" y="594" width="178" height="68" rx="8" fill="#f5f5f3"/>
  <text x="631" y="626" font-size="22" font-weight="700" fill="#1a1a18" text-anchor="middle">∞</text>
  <text x="631" y="648" font-size="10" fill="#6b6b67" text-anchor="middle">café consumido</text>

  <!-- ── FOCO ATUAL ── -->
  <text x="20" y="696" font-size="10" fill="#6b6b67" letter-spacing="2">// FOCO ATUAL</text>

  <!-- Tag 1 -->
  <rect x="20" y="708" width="162" height="24" rx="6" fill="#ffffff" stroke="rgba(0,0,0,0.18)" stroke-width="0.5"/>
  <text x="101" y="724" font-size="10" fill="#1a1a18" text-anchor="middle">AI Context Architecture</text>

  <!-- Tag 2 -->
  <rect x="192" y="708" width="202" height="24" rx="6" fill="#ffffff" stroke="rgba(0,0,0,0.18)" stroke-width="0.5"/>
  <text x="293" y="724" font-size="10" fill="#1a1a18" text-anchor="middle">Performance &amp; Observabilidade</text>

  <!-- Tag 3 -->
  <rect x="404" y="708" width="170" height="24" rx="6" fill="#ffffff" stroke="rgba(0,0,0,0.18)" stroke-width="0.5"/>
  <text x="489" y="724" font-size="10" fill="#1a1a18" text-anchor="middle">Arquitetura Hexagonal</text>

  <!-- ── CONTATO ── -->
  <text x="20" y="768" font-size="10" fill="#6b6b67" letter-spacing="2">// CONTATO</text>

  <!-- LinkedIn btn -->
  <rect x="20" y="780" width="110" height="30" rx="8" fill="#ffffff" stroke="rgba(0,0,0,0.18)" stroke-width="0.5"/>
  <text x="75" y="799" font-size="11" fill="#1a1a18" text-anchor="middle">LinkedIn ↗</text>

  <!-- GitHub btn -->
  <rect x="140" y="780" width="100" height="30" rx="8" fill="#ffffff" stroke="rgba(0,0,0,0.18)" stroke-width="0.5"/>
  <text x="190" y="799" font-size="11" fill="#1a1a18" text-anchor="middle">GitHub ↗</text>

  <!-- ── DIVIDER FINAL ── -->
  <line x1="20" y1="840" x2="720" y2="840" stroke="rgba(0,0,0,0.10)" stroke-width="0.5"/>

</svg>
